<svg xmlns="http://www.w3.org/2000/svg" width="1400" height="805" viewBox="0 0 1400 805">
    <defs>
        <radialGradient id="a" cx="6.211%" cy="62.98%" r="59.042%" fx="6.211%" fy="62.98%" gradientTransform="matrix(0 1 -.575 0 .424 .568)">
            <stop offset="0%" stop-color="#267EB5"/>
            <stop offset="100%" stop-color="#11487E"/>
        </radialGradient>
    </defs>
    <g fill="none" fill-rule="evenodd" transform="translate(0 -65)">
        <path fill="url(#a)" d="M.126 65.08h1400v805H.126z" transform="matrix(1 0 0 -1 0 935.16)"/>
        <ellipse cx="1279.5" cy="371.191" fill="#FFF" rx="2.5" ry="3.374" transform="rotate(180 1279.5 371.19)"/>
        <ellipse cx="1375.5" cy="111.357" fill="#FFF" rx="2.5" ry="3.374" transform="rotate(180 1375.5 111.357)"/>
        <ellipse cx="1273.5" cy="556.786" fill="#FFF" rx="3.5" ry="3.374" transform="rotate(180 1273.5 556.786)"/>
        <ellipse cx="189" cy="160.287" fill="#FFF" rx="1" ry="1.687" transform="rotate(180 189 160.287)"/>
        <ellipse cx="187" cy="302.014" fill="#FFF" rx="1" ry="1.687" transform="rotate(180 187 302.014)"/>
        <ellipse cx="187" cy="504.482" fill="#FFF" rx="1" ry="1.687" transform="rotate(180 187 504.482)"/>
        <ellipse cx="480.5" cy="426.869" fill="#FFF" rx="1.5" ry="1.687" transform="rotate(180 480.5 426.87)"/>
        <ellipse cx="419" cy="487.609" fill="#FFF" rx="2" ry="1.687" transform="rotate(180 419 487.61)"/>
        <ellipse cx="303.5" cy="522.198" fill="#FFF" rx="1.5" ry="1" transform="rotate(180 303.5 522.198)"/>
        <ellipse cx="276" cy="458.083" fill="#FFF" rx="2" ry="1" transform="rotate(180 276 458.083)"/>
        <ellipse cx="318" cy="403.248" fill="#FFF" rx="1" ry="1.687" transform="rotate(180 318 403.248)"/>
        <ellipse cx="300.5" cy="322.261" fill="#FFF" rx="1" ry="1.687" transform="rotate(180 300.5 322.26)"/>
        <ellipse cx="331.5" cy="251.397" fill="#FFF" rx="1" ry="1.687" transform="rotate(180 331.5 251.397)"/>
        <ellipse cx="382" cy="161.13" fill="#FFF" rx="1" ry="1" transform="rotate(180 382 161.13)"/>
        <ellipse cx="325" cy="134.135" fill="#FFF" rx="2" ry="1" transform="rotate(180 325 134.135)"/>
        <ellipse cx="308.5" cy="190.657" fill="#FFF" rx="1.5" ry="1.687" transform="rotate(180 308.5 190.657)"/>
        <ellipse cx="472.5" cy="89.423" fill="#FFF" rx="1.5" ry="1.687" transform="rotate(180 472.5 89.423)"/>
        <ellipse cx="511.5" cy="177.159" fill="#FFF" rx="1.5" ry="1.687" transform="rotate(180 511.5 177.16)"/>
        <ellipse cx="447" cy="217.653" fill="#FFF" rx="1" ry="1.687" transform="rotate(180 447 217.653)"/>
        <ellipse cx="400.5" cy="268.27" fill="#FFF" rx="1" ry="1.687" transform="rotate(180 400.5 268.27)"/>
        <ellipse cx="509.5" cy="318.886" fill="#FFF" rx="1" ry="1.687" transform="rotate(180 509.5 318.886)"/>
        <ellipse cx="457" cy="339.133" fill="#FFF" rx="1" ry="1.687" transform="rotate(180 457 339.133)"/>
        <ellipse cx="509.5" cy="521.354" fill="#FFF" rx="1" ry="1.687" transform="rotate(180 509.5 521.354)"/>
        <ellipse cx="790.5" cy="339.133" fill="#FFF" rx="1" ry="1.687" transform="rotate(180 790.5 339.133)"/>
        <ellipse cx="728.5" cy="397.343" fill="#FFF" rx="1" ry="1" transform="rotate(180 728.5 397.343)"/>
        <ellipse cx="689" cy="323.105" fill="#FFF" rx="2" ry="1" transform="rotate(180 689 323.105)"/>
        <ellipse cx="613.5" cy="433.618" fill="#FFF" rx="1" ry="1.687" transform="rotate(180 613.5 433.618)"/>
        <ellipse cx="585.5" cy="369.503" fill="#FFF" rx="1" ry="1.687" transform="rotate(180 585.5 369.503)"/>
        <ellipse cx="627.5" cy="315.512" fill="#FFF" rx="1.5" ry="1.687" transform="rotate(180 627.5 315.512)"/>
        <ellipse cx="610.5" cy="231.994" fill="#FFF" rx="1" ry="1" transform="rotate(180 610.5 231.994)"/>
        <ellipse cx="640.5" cy="163.661" fill="#FFF" rx="1.5" ry="1.687" transform="rotate(180 640.5 163.661)"/>
        <ellipse cx="691.5" cy="72.551" fill="#FFF" rx="1" ry="1.687" transform="rotate(180 691.5 72.55)"/>
        <ellipse cx="617.5" cy="100.39" fill="#FFF" rx="1" ry="1" transform="rotate(180 617.5 100.39)"/>
        <ellipse cx="822" cy="86.892" fill="#FFF" rx="1" ry="1" transform="rotate(180 822 86.892)"/>
        <ellipse cx="756.5" cy="129.917" fill="#FFF" rx="1" ry="1.687" transform="rotate(180 756.5 129.917)"/>
        <ellipse cx="710" cy="178.003" fill="#FFF" rx="1" ry="1" transform="rotate(180 710 178.003)"/>
        <ellipse cx="820" cy="231.151" fill="#FFF" rx="1" ry="1.687" transform="rotate(180 820 231.15)"/>
        <ellipse cx="767" cy="248.866" fill="#FFF" rx="1" ry="1" transform="rotate(180 767 248.866)"/>
        <ellipse cx="820" cy="431.087" fill="#FFF" rx="1" ry="1" transform="rotate(180 820 431.087)"/>
        <ellipse cx="1138.5" cy="426.869" fill="#FFF" rx="1" ry="1.687" transform="rotate(180 1138.5 426.87)"/>
        <ellipse cx="1076.5" cy="487.609" fill="#FFF" rx="1" ry="1.687" transform="rotate(180 1076.5 487.61)"/>
        <ellipse cx="1038" cy="413.371" fill="#FFF" rx="1" ry="1.687" transform="rotate(180 1038 413.371)"/>
        <ellipse cx="961.5" cy="522.198" fill="#FFF" rx="1" ry="1" transform="rotate(180 961.5 522.198)"/>
        <ellipse cx="933.5" cy="458.083" fill="#FFF" rx="1" ry="1" transform="rotate(180 933.5 458.083)"/>
        <ellipse cx="976.5" cy="403.248" fill="#FFF" rx="1" ry="1.687" transform="rotate(180 976.5 403.248)"/>
        <ellipse cx="959" cy="322.261" fill="#FFF" rx="1" ry="1.687" transform="rotate(180 959 322.26)"/>
        <ellipse cx="989" cy="251.397" fill="#FFF" rx="2" ry="1.687" transform="rotate(180 989 251.397)"/>
        <ellipse cx="1040" cy="161.13" fill="#FFF" rx="1" ry="1" transform="rotate(180 1040 161.13)"/>
        <ellipse cx="982" cy="134.135" fill="#FFF" rx="1" ry="1" transform="rotate(180 982 134.135)"/>
        <ellipse cx="966" cy="190.657" fill="#FFF" rx="1" ry="1.687" transform="rotate(180 966 190.657)"/>
        <ellipse cx="1129.5" cy="89.423" fill="#FFF" rx="1" ry="1.687" transform="rotate(180 1129.5 89.423)"/>
        <ellipse cx="1170.5" cy="177.159" fill="#FFF" rx="1.5" ry="1.687" transform="rotate(180 1170.5 177.16)"/>
        <ellipse cx="1105.5" cy="217.653" fill="#FFF" rx="1.5" ry="1.687" transform="rotate(180 1105.5 217.653)"/>
        <ellipse cx="1058.5" cy="268.27" fill="#FFF" rx="1.5" ry="1.687" transform="rotate(180 1058.5 268.27)"/>
        <ellipse cx="1168.5" cy="318.886" fill="#FFF" rx="1" ry="1.687" transform="rotate(180 1168.5 318.886)"/>
        <ellipse cx="1115" cy="339.133" fill="#FFF" rx="1" ry="1.687" transform="rotate(180 1115 339.133)"/>
        <ellipse cx="1168.5" cy="521.354" fill="#FFF" rx="1" ry="1.687" transform="rotate(180 1168.5 521.354)"/>
        <ellipse cx="1241.5" cy="172.097" fill="#FFF" rx="3.5" ry="3.374" transform="rotate(180 1241.5 172.097)"/>
        <ellipse cx="1383" cy="377.94" fill="#FFF" rx="3" ry="3.374" transform="rotate(180 1383 377.94)"/>
        <ellipse cx="1385.5" cy="305.389" fill="#FFF" rx="1" ry="1.687" transform="rotate(180 1385.5 305.389)"/>
        <ellipse cx="1323.5" cy="366.129" fill="#FFF" rx="1" ry="1.687" transform="rotate(180 1323.5 366.129)"/>
        <ellipse cx="1283.5" cy="291.891" fill="#FFF" rx="1.5" ry="1.687" transform="rotate(180 1283.5 291.89)"/>
        <ellipse cx="1207.5" cy="400.717" fill="#FFF" rx="1" ry="1" transform="rotate(180 1207.5 400.717)"/>
        <ellipse cx="1180.5" cy="336.602" fill="#FFF" rx="1" ry="1" transform="rotate(180 1180.5 336.602)"/>
        <ellipse cx="1221.5" cy="281.767" fill="#FFF" rx="1.5" ry="1.687" transform="rotate(180 1221.5 281.767)"/>
        <ellipse cx="155" cy="484.235" fill="#FFF" rx="3" ry="1.687" transform="rotate(180 155 484.235)"/>
        <ellipse cx="157.5" cy="410.841" fill="#FFF" rx="1" ry="1" transform="rotate(180 157.5 410.84)"/>
        <ellipse cx="149" cy="73.395" fill="#FFF" rx="2" ry="1" transform="rotate(180 149 73.395)"/>
        <ellipse cx="124.5" cy="201.624" fill="#FFF" rx="1.5" ry="1" transform="rotate(180 124.5 201.624)"/>
        <ellipse cx="133.5" cy="322.261" fill="#FFF" rx="1.5" ry="1.687" transform="rotate(180 133.5 322.26)"/>
        <ellipse cx="13.5" cy="276.706" fill="#FFF" rx="2.5" ry="3.374" transform="rotate(180 13.5 276.706)"/>
        <ellipse cx="95" cy="470.737" fill="#FFF" rx="1" ry="1.687" transform="rotate(180 95 470.737)"/>
        <ellipse cx="57.5" cy="396.499" fill="#FFF" rx="1" ry="1.687" transform="rotate(180 57.5 396.5)"/>
        <ellipse cx="7.5" cy="234.525" fill="#FFF" rx="1.5" ry="1.687" transform="rotate(180 7.5 234.525)"/>
        <ellipse cx="58.5" cy="144.258" fill="#FFF" rx="1" ry="1" transform="rotate(180 58.5 144.258)"/>
        <ellipse cx=".5" cy="117.262" fill="#FFF" rx="1" ry="1" transform="rotate(180 .5 117.262)"/>
        <ellipse cx="77" cy="251.397" fill="#FFF" rx="1" ry="1.687" transform="rotate(180 77 251.397)"/>
        <circle cx="76.126" cy="619.08" r="3" fill="#FFF" transform="rotate(180 76.126 619.08)"/>
        <circle cx="1243.126" cy="706.08" r="3" fill="#FFF" transform="rotate(180 1243.126 706.08)"/>
        <circle cx="1331.126" cy="467.08" r="3" fill="#FFF" transform="rotate(180 1331.126 467.08)"/>
        <circle cx="1358.126" cy="819.08" r="3" fill="#FFF" transform="rotate(180 1358.126 819.08)"/>
        <circle cx="207.126" cy="809.08" r="3" fill="#FFF" transform="rotate(180 207.126 809.08)"/>
        <circle cx="209.126" cy="742.08" r="1" fill="#FFF" transform="rotate(180 209.126 742.08)"/>
        <circle cx="152.126" cy="797.08" r="1" fill="#FFF" transform="rotate(180 152.126 797.08)"/>
        <circle cx="116.126" cy="728.08" r="1" fill="#FFF" transform="rotate(180 116.126 728.08)"/>
        <circle cx="46.126" cy="830.08" r="1" fill="#FFF" transform="rotate(180 46.126 830.08)"/>
        <circle cx="20.126" cy="771.08" r="1" fill="#FFF" transform="rotate(180 20.126 771.08)"/>
        <circle cx="59.126" cy="720.08" r="1" fill="#FFF" transform="rotate(180 59.126 720.08)"/>
        <circle cx="43.126" cy="644.08" r="1" fill="#FFF" transform="rotate(180 43.126 644.08)"/>
        <circle cx="71.126" cy="580.08" r="1" fill="#FFF" transform="rotate(180 71.126 580.08)"/>
        <circle cx="118.126" cy="497.08" r="1" fill="#FFF" transform="rotate(180 118.126 497.08)"/>
        <circle cx="65.126" cy="472.08" r="1" fill="#FFF" transform="rotate(180 65.126 472.08)"/>
        <circle cx="50.126" cy="523.08" r="1" fill="#FFF" transform="rotate(180 50.126 523.08)"/>
        <circle cx="201.126" cy="431.08" r="1" fill="#FFF" transform="rotate(180 201.126 431.08)"/>
        <circle cx="238.126" cy="511.08" r="1" fill="#FFF" transform="rotate(180 238.126 511.08)"/>
        <circle cx="178.126" cy="549.08" r="1" fill="#FFF" transform="rotate(180 178.126 549.08)"/>
        <circle cx="135.126" cy="595.08" r="1" fill="#FFF" transform="rotate(180 135.126 595.08)"/>
        <circle cx="236.126" cy="642.08" r="1" fill="#FFF" transform="rotate(180 236.126 642.08)"/>
        <circle cx="187.126" cy="660.08" r="1" fill="#FFF" transform="rotate(180 187.126 660.08)"/>
        <circle cx="236.126" cy="828.08" r="1" fill="#FFF" transform="rotate(180 236.126 828.08)"/>
        <circle cx="507.126" cy="757.08" r="1" fill="#FFF" transform="rotate(180 507.126 757.08)"/>
        <circle cx="450.126" cy="812.08" r="1" fill="#FFF" transform="rotate(180 450.126 812.08)"/>
        <circle cx="344.126" cy="845.08" r="1" fill="#FFF" transform="rotate(180 344.126 845.08)"/>
        <circle cx="318.126" cy="786.08" r="1" fill="#FFF" transform="rotate(180 318.126 786.08)"/>
        <circle cx="357.126" cy="735.08" r="1" fill="#FFF" transform="rotate(180 357.126 735.08)"/>
        <circle cx="341.126" cy="659.08" r="1" fill="#FFF" transform="rotate(180 341.126 659.08)"/>
        <circle cx="369.126" cy="595.08" r="1" fill="#FFF" transform="rotate(180 369.126 595.08)"/>
        <circle cx="416.126" cy="512.08" r="1" fill="#FFF" transform="rotate(180 416.126 512.08)"/>
        <circle cx="363.126" cy="487.08" r="1" fill="#FFF" transform="rotate(180 363.126 487.08)"/>
        <circle cx="348.126" cy="538.08" r="1" fill="#FFF" transform="rotate(180 348.126 538.08)"/>
        <circle cx="499.126" cy="446.08" r="1" fill="#FFF" transform="rotate(180 499.126 446.08)"/>
        <circle cx="536.126" cy="526.08" r="1" fill="#FFF" transform="rotate(180 536.126 526.08)"/>
        <circle cx="476.126" cy="564.08" r="1" fill="#FFF" transform="rotate(180 476.126 564.08)"/>
        <circle cx="433.126" cy="610.08" r="1" fill="#FFF" transform="rotate(180 433.126 610.08)"/>
        <circle cx="534.126" cy="657.08" r="1" fill="#FFF" transform="rotate(180 534.126 657.08)"/>
        <circle cx="485.126" cy="675.08" r="1" fill="#FFF" transform="rotate(180 485.126 675.08)"/>
        <circle cx="534.126" cy="843.08" r="1" fill="#FFF" transform="rotate(180 534.126 843.08)"/>
        <circle cx="792.126" cy="675.08" r="1" fill="#FFF" transform="rotate(180 792.126 675.08)"/>
        <circle cx="735.126" cy="730.08" r="1" fill="#FFF" transform="rotate(180 735.126 730.08)"/>
        <circle cx="699.126" cy="661.08" r="1" fill="#FFF" transform="rotate(180 699.126 661.08)"/>
        <circle cx="629.126" cy="763.08" r="1" fill="#FFF" transform="rotate(180 629.126 763.08)"/>
        <circle cx="603.126" cy="704.08" r="1" fill="#FFF" transform="rotate(180 603.126 704.08)"/>
        <circle cx="642.126" cy="653.08" r="1" fill="#FFF" transform="rotate(180 642.126 653.08)"/>
        <circle cx="626.126" cy="577.08" r="1" fill="#FFF" transform="rotate(180 626.126 577.08)"/>
        <circle cx="654.126" cy="513.08" r="1" fill="#FFF" transform="rotate(180 654.126 513.08)"/>
        <circle cx="701.126" cy="430.08" r="1" fill="#FFF" transform="rotate(180 701.126 430.08)"/>
        <circle cx="648.126" cy="405.08" r="1" fill="#FFF" transform="rotate(180 648.126 405.08)"/>
        <circle cx="633.126" cy="456.08" r="1" fill="#FFF" transform="rotate(180 633.126 456.08)"/>
        <circle cx="784.126" cy="364.08" r="1" fill="#FFF" transform="rotate(180 784.126 364.08)"/>
        <circle cx="821.126" cy="444.08" r="1" fill="#FFF" transform="rotate(180 821.126 444.08)"/>
        <circle cx="761.126" cy="482.08" r="1" fill="#FFF" transform="rotate(180 761.126 482.08)"/>
        <circle cx="718.126" cy="528.08" r="1" fill="#FFF" transform="rotate(180 718.126 528.08)"/>
        <circle cx="819.126" cy="575.08" r="1" fill="#FFF" transform="rotate(180 819.126 575.08)"/>
        <circle cx="770.126" cy="593.08" r="1" fill="#FFF" transform="rotate(180 770.126 593.08)"/>
        <circle cx="819.126" cy="761.08" r="1" fill="#FFF" transform="rotate(180 819.126 761.08)"/>
        <circle cx="980.126" cy="634.08" r="3" fill="#FFF" transform="rotate(180 980.126 634.08)"/>
        <circle cx="1113.126" cy="757.08" r="1" fill="#FFF" transform="rotate(180 1113.126 757.08)"/>
        <circle cx="1056.126" cy="812.08" r="1" fill="#FFF" transform="rotate(180 1056.126 812.08)"/>
        <circle cx="1020.126" cy="743.08" r="1" fill="#FFF" transform="rotate(180 1020.126 743.08)"/>
        <circle cx="950.126" cy="845.08" r="1" fill="#FFF" transform="rotate(180 950.126 845.08)"/>
        <circle cx="924.126" cy="786.08" r="1" fill="#FFF" transform="rotate(180 924.126 786.08)"/>
        <circle cx="963.126" cy="735.08" r="1" fill="#FFF" transform="rotate(180 963.126 735.08)"/>
        <circle cx="947.126" cy="659.08" r="1" fill="#FFF" transform="rotate(180 947.126 659.08)"/>
        <circle cx="975.126" cy="595.08" r="1" fill="#FFF" transform="rotate(180 975.126 595.08)"/>
        <circle cx="1022.126" cy="512.08" r="1" fill="#FFF" transform="rotate(180 1022.126 512.08)"/>
        <circle cx="969.126" cy="487.08" r="1" fill="#FFF" transform="rotate(180 969.126 487.08)"/>
        <circle cx="954.126" cy="538.08" r="1" fill="#FFF" transform="rotate(180 954.126 538.08)"/>
        <circle cx="1105.126" cy="446.08" r="1" fill="#FFF" transform="rotate(180 1105.126 446.08)"/>
        <circle cx="1142.126" cy="526.08" r="1" fill="#FFF" transform="rotate(180 1142.126 526.08)"/>
        <circle cx="1082.126" cy="564.08" r="1" fill="#FFF" transform="rotate(180 1082.126 564.08)"/>
        <circle cx="1039.126" cy="610.08" r="1" fill="#FFF" transform="rotate(180 1039.126 610.08)"/>
        <circle cx="1140.126" cy="657.08" r="1" fill="#FFF" transform="rotate(180 1140.126 657.08)"/>
        <circle cx="1091.126" cy="675.08" r="1" fill="#FFF" transform="rotate(180 1091.126 675.08)"/>
        <circle cx="1140.126" cy="843.08" r="1" fill="#FFF" transform="rotate(180 1140.126 843.08)"/>
        <circle cx="1207.126" cy="522.08" r="3" fill="#FFF" transform="rotate(180 1207.126 522.08)"/>
        <circle cx="1338.126" cy="712.08" r="3" fill="#FFF" transform="rotate(180 1338.126 712.08)"/>
        <circle cx="1340.126" cy="645.08" r="1" fill="#FFF" transform="rotate(180 1340.126 645.08)"/>
        <circle cx="1283.126" cy="700.08" r="1" fill="#FFF" transform="rotate(180 1283.126 700.08)"/>
        <circle cx="1247.126" cy="631.08" r="1" fill="#FFF" transform="rotate(180 1247.126 631.08)"/>
        <circle cx="1177.126" cy="733.08" r="1" fill="#FFF" transform="rotate(180 1177.126 733.08)"/>
        <circle cx="1151.126" cy="674.08" r="1" fill="#FFF" transform="rotate(180 1151.126 674.08)"/>
        <circle cx="1190.126" cy="623.08" r="1" fill="#FFF" transform="rotate(180 1190.126 623.08)"/>
    </g>
</svg>
