<svg xmlns="http://www.w3.org/2000/svg" width="1400" height="450" viewBox="0 0 1400 450">
    <defs>
        <radialGradient id="a" cx="23.25%" cy="55.35%" r="59.042%" fx="23.25%" fy="55.35%" gradientTransform="matrix(0 1 -.32071 0 .41 .321)">
            <stop offset="0%" stop-color="#267EB5"/>
            <stop offset="100%" stop-color="#11487E"/>
        </radialGradient>
    </defs>
    <g fill="none" fill-rule="evenodd">
        <g>
            <path fill="url(#a)" d="M0 0h1400v449H0z"/>
            <circle cx="984" cy="111" r="3" fill="#FFF"/>
            <circle cx="908" cy="245" r="3" fill="#FFF"/>
            <circle cx="1323" cy="235" r="3" fill="#FFF"/>
            <circle cx="834" cy="410" r="3" fill="#FFF"/>
            <circle cx="684" cy="57" r="3" fill="#FFF"/>
            <circle cx="156" cy="148" r="3" fill="#FFF"/>
            <circle cx="439" cy="83" r="3" fill="#FFF"/>
            <circle cx="68" cy="387" r="3" fill="#FFF"/>
            <circle cx="41" cy="35" r="3" fill="#FFF"/>
            <circle cx="1192" cy="45" r="3" fill="#FFF"/>
            <circle cx="1190" cy="112" r="1" fill="#FFF"/>
            <circle cx="1247" cy="57" r="1" fill="#FFF"/>
            <circle cx="1283" cy="126" r="1" fill="#FFF"/>
            <circle cx="1353" cy="24" r="1" fill="#FFF"/>
            <circle cx="1379" cy="83" r="1" fill="#FFF"/>
            <circle cx="1340" cy="134" r="1" fill="#FFF"/>
            <circle cx="1356" cy="210" r="1" fill="#FFF"/>
            <circle cx="1328" cy="274" r="1" fill="#FFF"/>
            <circle cx="1281" cy="357" r="1" fill="#FFF"/>
            <circle cx="1334" cy="382" r="1" fill="#FFF"/>
            <circle cx="1349" cy="331" r="1" fill="#FFF"/>
            <circle cx="1198" cy="423" r="1" fill="#FFF"/>
            <circle cx="1161" cy="343" r="1" fill="#FFF"/>
            <circle cx="1221" cy="305" r="1" fill="#FFF"/>
            <circle cx="1264" cy="259" r="1" fill="#FFF"/>
            <circle cx="1163" cy="212" r="1" fill="#FFF"/>
            <circle cx="1212" cy="194" r="1" fill="#FFF"/>
            <circle cx="1163" cy="26" r="1" fill="#FFF"/>
            <circle cx="1025" cy="220" r="3" fill="#FFF"/>
            <circle cx="894" cy="30" r="3" fill="#FFF"/>
            <circle cx="892" cy="97" r="1" fill="#FFF"/>
            <circle cx="949" cy="42" r="1" fill="#FFF"/>
            <circle cx="985" cy="111" r="1" fill="#FFF"/>
            <circle cx="1055" cy="9" r="1" fill="#FFF"/>
            <circle cx="1081" cy="68" r="1" fill="#FFF"/>
            <circle cx="1042" cy="119" r="1" fill="#FFF"/>
            <circle cx="1058" cy="195" r="1" fill="#FFF"/>
            <circle cx="1030" cy="259" r="1" fill="#FFF"/>
            <circle cx="983" cy="342" r="1" fill="#FFF"/>
            <circle cx="1036" cy="367" r="1" fill="#FFF"/>
            <circle cx="1051" cy="316" r="1" fill="#FFF"/>
            <circle cx="900" cy="408" r="1" fill="#FFF"/>
            <circle cx="863" cy="328" r="1" fill="#FFF"/>
            <circle cx="923" cy="290" r="1" fill="#FFF"/>
            <circle cx="966" cy="244" r="1" fill="#FFF"/>
            <circle cx="865" cy="197" r="1" fill="#FFF"/>
            <circle cx="914" cy="179" r="1" fill="#FFF"/>
            <circle cx="865" cy="11" r="1" fill="#FFF"/>
            <circle cx="740" cy="302" r="3" fill="#FFF"/>
            <circle cx="609" cy="112" r="3" fill="#FFF"/>
            <circle cx="607" cy="179" r="1" fill="#FFF"/>
            <circle cx="664" cy="124" r="1" fill="#FFF"/>
            <circle cx="700" cy="193" r="1" fill="#FFF"/>
            <circle cx="770" cy="91" r="1" fill="#FFF"/>
            <circle cx="796" cy="150" r="1" fill="#FFF"/>
            <circle cx="757" cy="201" r="1" fill="#FFF"/>
            <circle cx="773" cy="277" r="1" fill="#FFF"/>
            <circle cx="745" cy="341" r="1" fill="#FFF"/>
            <circle cx="698" cy="424" r="1" fill="#FFF"/>
            <circle cx="751" cy="449" r="1" fill="#FFF"/>
            <circle cx="766" cy="398" r="1" fill="#FFF"/>
            <circle cx="578" cy="410" r="1" fill="#FFF"/>
            <circle cx="638" cy="372" r="1" fill="#FFF"/>
            <circle cx="681" cy="326" r="1" fill="#FFF"/>
            <circle cx="580" cy="279" r="1" fill="#FFF"/>
            <circle cx="629" cy="261" r="1" fill="#FFF"/>
            <circle cx="580" cy="93" r="1" fill="#FFF"/>
            <circle cx="419" cy="220" r="3" fill="#FFF"/>
            <circle cx="288" cy="30" r="3" fill="#FFF"/>
            <circle cx="286" cy="97" r="1" fill="#FFF"/>
            <circle cx="343" cy="42" r="1" fill="#FFF"/>
            <circle cx="379" cy="111" r="1" fill="#FFF"/>
            <circle cx="449" cy="9" r="1" fill="#FFF"/>
            <circle cx="475" cy="68" r="1" fill="#FFF"/>
            <circle cx="436" cy="119" r="1" fill="#FFF"/>
            <circle cx="452" cy="195" r="1" fill="#FFF"/>
            <circle cx="424" cy="259" r="1" fill="#FFF"/>
            <circle cx="377" cy="342" r="1" fill="#FFF"/>
            <circle cx="430" cy="367" r="1" fill="#FFF"/>
            <circle cx="445" cy="316" r="1" fill="#FFF"/>
            <circle cx="294" cy="408" r="1" fill="#FFF"/>
            <circle cx="257" cy="328" r="1" fill="#FFF"/>
            <circle cx="317" cy="290" r="1" fill="#FFF"/>
            <circle cx="360" cy="244" r="1" fill="#FFF"/>
            <circle cx="259" cy="197" r="1" fill="#FFF"/>
            <circle cx="308" cy="179" r="1" fill="#FFF"/>
            <circle cx="259" cy="11" r="1" fill="#FFF"/>
            <circle cx="192" cy="332" r="3" fill="#FFF"/>
            <circle cx="61" cy="142" r="3" fill="#FFF"/>
            <circle cx="59" cy="209" r="1" fill="#FFF"/>
            <circle cx="116" cy="154" r="1" fill="#FFF"/>
            <circle cx="152" cy="223" r="1" fill="#FFF"/>
            <circle cx="222" cy="121" r="1" fill="#FFF"/>
            <circle cx="248" cy="180" r="1" fill="#FFF"/>
            <circle cx="209" cy="231" r="1" fill="#FFF"/>
            <circle cx="225" cy="307" r="1" fill="#FFF"/>
            <circle cx="197" cy="371" r="1" fill="#FFF"/>
            <circle cx="218" cy="428" r="1" fill="#FFF"/>
            <circle cx="30" cy="440" r="1" fill="#FFF"/>
            <circle cx="90" cy="402" r="1" fill="#FFF"/>
            <circle cx="133" cy="356" r="1" fill="#FFF"/>
            <circle cx="32" cy="309" r="1" fill="#FFF"/>
            <circle cx="81" cy="291" r="1" fill="#FFF"/>
            <circle cx="32" cy="123" r="1" fill="#FFF"/>
            <circle cx="1085" cy="79" r="1" fill="#FFF"/>
            <circle cx="620" cy="303" r="3" fill="#FFF"/>
            <circle cx="1122" cy="292" r="3" fill="#FFF"/>
        </g>
        <g transform="translate(159 96)">
            <circle cx="161.5" cy="161.5" r="161.5" fill="#1A71AA" fill-opacity=".372"/>
            <circle cx="161.5" cy="161.5" r="137.5" fill="#68A4CB" fill-opacity=".296" opacity=".263"/>
            <circle cx="160" cy="162" r="110" fill="#52C4D2"/>
            <path fill="#51AA4C" d="M231 86a51.986 51.986 0 0 1 6 4c1.804 1.403 4.304 3.57 7.5 6.5L233 95l-2-9zM231.818 100.5L253 103c2.696 3.763 4.643 6.93 5.84 9.5 1.198 2.57 2.751 6.57 4.66 12l-27.023-11L222.5 121l1.864-10.5 4.193-2.5-1.398-3 4.66-4.5zM94.858 164l55.642 29.897L95 251l-6.5-5.5 10.496-36.936L87.5 185.436z"/>
            <path fill="#51AA4C" d="M81.5 84.5l33.59-9.5-.909 16-13.169 1.5L115.09 109l23.16-7 6.811-16 15.44 12v17l-26.792 20.5-4.995 17-13.624-11.5-20.889-5.5-2.724 16 6.811 1L94.2 162l.909 2-3.633 10.5-12.715-18L66.5 120l4.541-23.5z"/>
            <path fill="#51AA4C" d="M137.5 60l8 6.5-4 10-17 2.5-.5-14zM152 69h9l1 5-12 1.5z"/>
            <path fill="#FFF" d="M167 52c9.557.869 18.39 2.535 26.5 5s17.443 7.131 28 14l-15 7.5 5 15.5L175 77l3-9.5L167 52z"/>
            <path fill="#51AA4C" d="M207 152.5l26-24 10 13.5 13.5-10 12.5 14c1.216 8.667 1.383 18.333.5 29-.584 7.063-3.843 21.529-9.5 34-1.924 4.242-5.424 9.742-10.5 16.5L231 187l-18.5-7-5.5-27.5z"/>
        </g>
    </g>
</svg>
